<?xml version="1.0" encoding="UTF-8" standalone="no"?>
<!-- Created with Inkscape (http://www.inkscape.org/) -->

<svg
   xmlns:dc="http://purl.org/dc/elements/1.1/"
   xmlns:cc="http://creativecommons.org/ns#"
   xmlns:rdf="http://www.w3.org/1999/02/22-rdf-syntax-ns#"
   xmlns:svg="http://www.w3.org/2000/svg"
   xmlns="http://www.w3.org/2000/svg"
   version="1.1"
   width="1000"
   height="1000"
   id="svg2">
  <defs
     id="defs4" />
  <metadata
     id="metadata7">
    <rdf:RDF>
      <cc:Work
         rdf:about="">
        <dc:format>image/svg+xml</dc:format>
        <dc:type
           rdf:resource="http://purl.org/dc/dcmitype/StillImage" />
        <dc:title></dc:title>
      </cc:Work>
    </rdf:RDF>
  </metadata>
  <path
     d="m 963,608 0,-159 -102,0 -137,-137 -210,0 -108,108 -78,20 0,168 z"
     id="frame"
     style="fill:#1bff12;fill-opacity:1;stroke:#000000;stroke-width:37;stroke-linecap:round;stroke-linejoin:round;stroke-miterlimit:4;stroke-opacity:1;stroke-dasharray:none" />
  <path
     d="m 902,612 a 69,69 0 0 1 -138,0 69,69 0 1 1 138,0 z"
     id="wheel-front"
     style="fill:#9a9a9a;fill-opacity:1;stroke:#000000;stroke-width:37;stroke-linecap:round;stroke-linejoin:round;stroke-miterlimit:4;stroke-opacity:1;stroke-dasharray:none" />
  <path
     d="m 519,612 a 69,69 0 0 1 -138,0 69,69 0 1 1 138,0 z"
     id="wheel-back"
     style="fill:#9a9a9a;fill-opacity:1;stroke:#000000;stroke-width:37;stroke-linecap:round;stroke-linejoin:round;stroke-miterlimit:4;stroke-opacity:1;stroke-dasharray:none" />
  <path
     d="m 639,385 0,72 129,0 0,-17 -53,-53 z"
     id="window-front"
     style="fill:#1212ff;fill-opacity:1;stroke:#000000;stroke-width:37;stroke-linecap:round;stroke-linejoin:round;stroke-miterlimit:4;stroke-opacity:1;stroke-dasharray:none" />
  <path
     d="m 573,385 0,72 -101,0 0,-17 53,-53 z"
     id="window-back"
     style="fill:#1212ff;fill-opacity:1;stroke:#000000;stroke-width:37;stroke-linecap:round;stroke-linejoin:round;stroke-miterlimit:4;stroke-opacity:1;stroke-dasharray:none" />
  <path
     d="m 410,312 -197,0"
     id="line-1"
     style="fill:none;stroke:#000000;stroke-width:37;stroke-linecap:round;stroke-linejoin:round;stroke-miterlimit:4;stroke-opacity:1;stroke-dasharray:none" />
  <path
     d="M 242,446 45,446"
     id="line-2"
     style="fill:none;stroke:#000000;stroke-width:37;stroke-linecap:round;stroke-linejoin:round;stroke-miterlimit:4;stroke-opacity:1;stroke-dasharray:none" />
  <path
     d="M 234,610 37,610"
     id="line-3"
     style="fill:none;stroke:#000000;stroke-width:37;stroke-linecap:round;stroke-linejoin:round;stroke-miterlimit:4;stroke-opacity:1;stroke-dasharray:none" />
</svg>
